<?xml version="1.0" encoding="utf-8"?>
<!-- Generator: Adobe Illustrator 29.2.1, SVG Export Plug-In . SVG Version: 9.03 Build 55982)  -->
<!DOCTYPE svg PUBLIC "-//W3C//DTD SVG 1.1//EN" "http://www.w3.org/Graphics/SVG/1.1/DTD/svg11.dtd" [
	<!ENTITY ns_extend "http://ns.adobe.com/Extensibility/1.0/">
	<!ENTITY ns_ai "http://ns.adobe.com/AdobeIllustrator/10.0/">
	<!ENTITY ns_graphs "http://ns.adobe.com/Graphs/1.0/">
	<!ENTITY ns_vars "http://ns.adobe.com/Variables/1.0/">
	<!ENTITY ns_imrep "http://ns.adobe.com/ImageReplacement/1.0/">
	<!ENTITY ns_sfw "http://ns.adobe.com/SaveForWeb/1.0/">
	<!ENTITY ns_custom "http://ns.adobe.com/GenericCustomNamespace/1.0/">
	<!ENTITY ns_adobe_xpath "http://ns.adobe.com/XPath/1.0/">
]>
<svg version="1.1" id="Layer_1" xmlns:x="&ns_extend;" xmlns:i="&ns_ai;" xmlns:graph="&ns_graphs;"
	 xmlns="http://www.w3.org/2000/svg" xmlns:xlink="http://www.w3.org/1999/xlink" x="0px" y="0px" viewBox="0 0 479.2 387.5"
	 style="enable-background:new 0 0 479.2 387.5;" xml:space="preserve">
<style type="text/css">
	.Drop_x0020_Shadow{fill:none;}
	.Round_x0020_Corners_x0020_2_x0020_pt{fill:#FFFFFF;stroke:#1D1D1B;stroke-miterlimit:10;}
	.Live_x0020_Reflect_x0020_X{fill:none;}
	.Bevel_x0020_Soft{fill:url(#SVGID_1_);}
	.Dusk{fill:#FFFFFF;}
	.Foliage_GS{fill:#FFDC00;}
	.Pompadour_GS{fill-rule:evenodd;clip-rule:evenodd;fill:#51ADE1;}
	.st0{fill:#FA0A0A;}
	.st1{fill:#FFFFFF;}
</style>
<metadata>
	<sfw  xmlns="&ns_sfw;">
		<slices></slices>
		<sliceSourceBounds  bottomLeftOrigin="true" height="314.5" width="411.1" x="92.2" y="-585.6"></sliceSourceBounds>
	</sfw>
</metadata>
<linearGradient id="SVGID_1_" gradientUnits="userSpaceOnUse" x1="-58.0293" y1="-233.7518" x2="-57.3222" y2="-233.0447">
	<stop  offset="0" style="stop-color:#E6E6EA"/>
	<stop  offset="0.1761" style="stop-color:#E2E2E6"/>
	<stop  offset="0.3567" style="stop-color:#D6D6DA"/>
	<stop  offset="0.5393" style="stop-color:#C1C2C5"/>
	<stop  offset="0.7233" style="stop-color:#A5A6A8"/>
	<stop  offset="0.9067" style="stop-color:#808384"/>
	<stop  offset="1" style="stop-color:#6B6E6E"/>
</linearGradient>
<g>
	<g>
		<path class="st0" d="M444.8,241.6c-1.3-4-4.7-5.4-6.3-6c-0.7-0.3-1.2-0.5-1.8-0.9c-1.3-1.3-5.1-5.9-9.4-11.4
			c0.1-0.2,0.5-0.6,0.5-0.6l0.1-0.1c2.8-3.8,3.6-7.8,2.3-11.8l-6.1-19c-2.1-6.5-7-10.3-13.4-10.3c-1.9,0-3.8,0.3-5.9,1
			c-9.6,3-46.6,12.4-47.3,12.5c-1,0.2-2,0.6-3.2,1.1c-1,0.4-2.6,1-3.4,1.2c-6.6,1.4-9.8,2-16.3,3.2c-0.8,0.1-2.5,0.2-3.6,0.2
			c-1.3,0-2.4,0-3.4,0.2c-1.7,0.3-3.2,1.1-4.4,2.1c-1.3-0.4-2.7-0.6-4.1-0.6c-0.8,0-1.6,0.1-2.5,0.2c-1.5,0.2-2.7,0.4-3.9,0.6
			c1.4-5.3,2.1-8,2.5-9.3c0.3-0.2,0.6-0.4,0.9-0.7c4.4-3.6,6-9.7,3.9-15c0-0.1,0-0.1-0.1-0.2c4.6-4.7,7.7-9.1,10.3-12.8
			c0.7-1,1.4-1.9,2-2.9c3.5-4.8,7.2-14.2,7-20.9c-0.3-11.9-6.5-15.8-10.1-17.1c-2-0.7-4.3-1.1-6.5-1.1c-3,0-5.8,0.7-8.2,1.9
			c0.9-2.7,0.8-5.4,0.7-8c-0.6-9.7-9.3-8.2-12.1-12.1c-3.2-4.5-3-9.7-2.4-15.2l0.7-6.6l-0.9,0.7c-2.6,2.2-4.4,5.2-5.1,8.5
			c-3.5-2.9-5.5-1.2-9.1-2.3c-3.4-1-6-3.4-6-3.4c0.1-1.6-0.2-0.5,0.8-3.8c2-6.7,0.2-16.2-7.4-20.6l-9.5-5.5l-0.7,8.5
			c0,0.5-0.1,0.9-0.2,1.3c-0.5,2.3-1.1,3.6-2.7,4.9c-0.2,0.1-0.5,0.3-0.8,0.5c-1.6,0.9-4.2,2.4-5.9,5.4c-0.5,0.8-0.8,1.6-1.1,2.4
			c-0.5-0.2-0.9-0.4-1.2-0.6c1.9-18.2-5.7-23.9-12.4-25.5c-0.9-0.2-1.9-0.4-2.8-0.5c-0.9-0.2-2.4-0.4-2.9-0.6
			c-0.3-0.2-1.1-1-1.7-1.5c-0.8-0.8-1.7-1.7-2.8-2.6c-0.5-0.4-1-0.8-1.5-1.2c-3.7-3.1-7.9-6.7-14.6-6.7c-1.5,0-3,0.2-4.6,0.5
			c-3.5,0.8-6.1,2.7-8.7,4.5c-1.2,0.8-2.5,1.7-3.8,2.5c-0.5,0.3-1.6,0.7-2.6,0.9l0.6-1.6c0.9-2.7,1.2-5.6,0.6-8.5
			c0,0-5.6-3.4-13.3-0.3c-1.6,0.7-3.1,1.9-4.8,3.3c-2.4,2-4.1,4.7-4.9,7.5c-1.7,6.3,0.3,12.4,5.6,16.7c0.5,0.4,1,0.8,1.4,1.1
			c-10,2.1-16.2,10.5-15.2,21.1c0.5,5,2.6,9.6,4.5,13.7c0.8,1.8,1.7,3.8,2.2,5.2c-1.3-1.3-2.9-2.4-4.6-3.1c-2.4-1-4.7-1.2-6.2-1.3
			c-0.2,0-0.4,0-0.5,0c-8.6,0-16.6,6.5-18.6,15c-2.3,9.9,1.8,16.1,4.1,19c-0.5,0-1-0.1-1.5-0.1c-8.6,0-16.8,7.1-18.2,15.8
			c-2.2,13.5,9.5,24.3,19.6,30.9c0,0,0,0,0,0c0.1,1.5,0.4,2.6,0.5,2.9c1.3,4.5,4.5,6.4,6.2,7.3c0.9,2.1,2.3,6.4,4,12
			c-4.1-0.7-6.5-1.2-11.1-2c-0.6-0.1-1.2-0.2-1.8-0.2c-3.8,0-7.1,2.4-8.3,5.9c0-0.2-0.1-0.4-0.1-0.5c-1.3-6.3-5.2-8.4-8.1-9.1
			c-3.7-0.8-15.1-3.7-16.6-4.1c-5.2-1.3-7.5-2.2-12.7-3.6c-0.8-0.2-1.7-0.3-2.5-0.3c-1.2,0-2.3,0.2-3.4,0.7c-2-2.3-4.7-4.1-7.5-4.9
			c-5.6-1.7-8.3-2.5-13.8-4.3c-1.8-0.6-3.6-0.9-5.4-0.9c-5.8,0-10.6,3.4-12.4,8.8l-5.4,16c-1.6,4.8-0.5,8.5,1,11.2
			c-3.1,0.6-5.7,2.8-6.8,6.1l-5,14.7c-1.1,3.2-0.8,6.7,0.8,9.9c1.9,3.7,5.3,6.5,9.6,7.9c6.2,2,9.4,3,15.6,4.9
			c1.9,0.6,3.7,0.8,5.4,0.8c0,0,0,0,0,0c1.2,0,2.4-0.1,3.5-0.4c0,0.1,0.1,0.2,0.1,0.3c1.2,2,3.1,3.5,5.5,4.2
			c5.8,1.6,8.8,2.4,14.6,3.9c0.8,0.2,1.6,0.3,2.4,0.3c0.5,0,1,0,1.5-0.1c1.1,1,2.5,1.8,4.1,2.2c5.7,1.4,8.6,2.1,14.3,3.3
			c0.7,0.2,1.4,0.2,2.1,0.2c4.1,0,7.7-2.8,8.5-6.9c0.1-0.6,0.2-1.2,0.2-1.7c0.4,1.3,1.3,4.4,1.3,4.4l0.1,0.2c0.7,1.9,2.6,6.9,8.5,8
			c2.3,0.4,3.4,0.6,5.7,1c0.6,0.1,1.3,0.2,1.9,0.2c0,0,0,0,0,0c4.7,0,8.5-3.3,9.3-7.9l3.3-18.8c0.2,0,0.4,0.1,0.6,0.1
			c2,0.4,3.7,0.7,5.5,1c1,0.2,2.1,0.4,3.2,0.6c0.7,0.1,1.4,0.2,2.1,0.2c1.7,0,3.2-0.4,4.5-1.1c0.9,3.4,1.8,6.6,2.7,9.7
			c0.5,1.8,0.9,3.7,1.4,5.7c1.6,7.2,3.5,15.8,9.8,22.3c-0.5-0.1-9.6-2.8-19.1-6.2c-3.2-1.1-4.7-1.8-7.8-3.1
			c-1.8-0.8-3.5-1.1-5.3-1.1c-4.3,0-8.1,2.4-9.9,6.4l-4,8.9c-1,2.1-1.2,4.1-1,5.8c-1.4,0.9-2.6,2.2-3.4,3.9l-3.7,8.2
			c-1.2,2.6-1.2,5.5-0.1,8.2c1.2,3.2,3.8,5.7,7.2,7.2c3.8,1.6,5.9,2.5,9.8,3.9c1.6,0.6,3.1,0.9,4.7,1c0.9,0.8,1.9,1.4,3.1,1.8
			c3.6,1.2,5.5,1.9,9.2,3c0.9,0.3,1.7,0.4,2.6,0.4c0.5,0,1.1,0,1.6-0.1c1,0.9,2.3,1.6,3.7,2c3.7,1,5.6,1.5,9.4,2.3
			c0.3,0.1,0.6,0.1,0.9,0.2c0.3,0.1,0.6,0.2,0.9,0.2c3.8,0.8,5.7,1.2,9.5,1.9c0.6,0.1,1.2,0.2,1.8,0.2c1.6,0,3.1-0.4,4.4-1.2
			c1.1,1.2,2.8,2.4,5.6,2.8c3.6,0.5,5.5,0.7,9.1,1c0.4,0,0.7,0,1,0c0.7,0,1.4-0.1,2.1-0.3c0.9,0.4,1.8,0.6,2.9,0.7
			c3.8,0.3,5.8,0.3,9.6,0.5l0.3,0c2.2,0,4.2-0.8,5.7-2.2c1.5,1.4,3.5,2.2,5.8,2.2l0.2,0c8.2-0.2,12.4-0.4,20.5-1.2
			c3.5-0.4,5.6-2.1,6.7-3.5c1.3-1.5,1.9-3.4,2-5.4c1.1,3.7,5.3,6.3,9.2,6.3c0.5,0,1.1-0.1,1.6-0.1c3.7-0.7,5.7-1.1,9.4-1.9
			c1.3-0.3,2.5-0.9,3.5-1.6c0.4,0,0.9,0.1,1.3,0.1c1.2,0,2.5-0.2,3.9-0.5c4.5-1.2,6.8-1.8,11.2-3.2c1.6-0.5,3-1.2,4.3-2.2
			c0.3,0,0.5,0,0.8,0c1,0,2-0.2,2.9-0.5c7.8-2.7,11.8-4.3,19.4-7.6c3.2-1.4,4.7-3.7,5.3-5.4c0.9-2.3,0.8-4.8-0.3-7.1l-3.8-8.5
			c-1.4-3.1-4.3-5-7.7-5.1l-0.7-1.6c-0.1-0.1-0.1-0.3-0.2-0.4c0.2-0.2,0.3-0.5,0.5-0.8c1-1.5,2.4-4.8,0.4-9l-2.2-4.9
			c-1.5-3.3-4.6-5.3-8.2-5.3c-1.4,0-2.8,0.3-4.1,0.9c-6.1,2.7-9.1,3.9-15.4,6.1c-1,0.4-5.2,1.7-6.4,2.1c-3.5,1.1-5.3,1.6-8.9,2.5
			c-0.8,0.2-1.6,0.5-2.3,0.8c6.6-4.6,8.2-8.3,10.4-17c0.4-1.7,0.9-3.5,1.5-5.7c0.1-0.5,0.4-1.5,0.8-3.1l0.1,0.6
			c0.8,6.7,7.1,11.8,14.6,11.8c0.8,0,1.5,0,2.3-0.1c6.4-0.8,9.7-1.3,16.1-2.2c4.6-0.7,8.3-2.7,10.6-5.9c0.5-0.7,1-1.5,1.3-2.3
			c1.4,2.9,4.4,4.8,7.8,4.8c0,0,0,0,0,0c0.6,0,1.2-0.1,1.8-0.2c5.9-1.1,8.9-1.7,14.8-2.9c2.4-0.5,4.5-1.9,5.8-3.8
			c0.4-0.5,0.6-1.1,0.9-1.7c1.6,1.6,3.8,2.5,6.1,2.5c0.7,0,1.5-0.1,2.2-0.3c5.8-1.3,8.8-2.1,14.7-3.6c1-0.3,14.8-3.9,20.6-5.6
			c1.8-0.5,3.4-1.5,4.5-2.9c0.8,0.2,1.7,0.4,2.5,0.4h0c0.9,0,1.9-0.1,2.8-0.4c5.6-1.7,8.6-2.6,14.2-4.5c2.4-0.8,4.3-2.4,5.3-4.5
			C445.3,246.2,445.5,243.8,444.8,241.6z M208.1,73.2c-0.8,3.4-1.1,4.7-7.3,7.4c-2.6,1.1-6.2,1.8-9,1.8c-1.5,0-2.4-0.2-2.8-0.3
			c-0.7-0.2-1.2-0.5-1.6-0.6c0.1-0.5,0.3-1.2,0.9-2.4c1.3-2.6,1.1-5.5-0.4-8c1.1,0.1,2.3,0.2,3.5,0.2c0.9,0,1.9,0,2.9-0.1
			c1.8-0.2,3.4-0.4,4.9-0.7c1-0.2,2-0.3,2.8-0.5c0.3,0,0.6-0.1,1-0.1c2.3,0,4.2,0.9,4.9,1.7C208.1,71.8,208.4,72.1,208.1,73.2z"/>
	</g>
</g>
<g>
	<path class="st1" d="M156.4,312.9c-2.6-3.4-3.8-5.1-6.1-8.5c-0.7-1.1-0.7-1.8-0.4-2.7c0.9-2.2,1.4-3.2,2.3-5.4
		c0.3-0.7,0.7-0.8,1.4-0.5c1.8,0.7,2.7,1.1,4.5,1.8c0.5,0.2,0.7,0.7,0.5,1.3c-0.4,1.2-0.7,1.7-1.1,2.9c-0.3,0.7-0.3,1.1,0,1.5
		c0,0,2.4,3.3,2.9,3.5c0.4,0.2,0.7,0,0.9-0.4c1-2.9,1.5-4.3,2.6-7.1c0.5-1.4-0.3-3.5-2.7-4.5c-3.2-1.2-4.9-1.9-8.1-3.3
		c-2.1-0.9-4-0.6-4.8,1.2c-1.6,3.6-2.4,5.3-4,8.9c-0.7,1.6-0.2,2.7,0.8,4.2c2.3,3.5,3.5,5.2,6,8.6c0.7,0.9,0.8,1.7,0.5,2.5
		c-1,2.5-1.4,3.7-2.4,6.2c-0.3,0.7-0.7,0.8-1.5,0.5c-2-0.8-3.1-1.2-5.1-2.1c-0.5-0.2-0.8-0.8-0.6-1.3c0.7-1.7,1.1-2.5,1.8-4.2
		c0.3-0.7,0.3-1.1,0-1.5c0,0-2.5-3.5-3-3.8c-0.4-0.2-0.7-0.1-0.9,0.3c-1.5,3.3-2.2,4.9-3.7,8.2c-0.6,1.4,0.2,3.7,3,4.9
		c3.8,1.6,5.6,2.4,9.4,3.8c2.5,1,4.6,0.5,5.2-1.3c1.4-3.9,2.1-5.9,3.5-9.8C157.9,315.5,157.5,314.5,156.4,312.9z"/>
	<path class="st1" d="M180.8,334c2.1-9.1,4.2-18.2,6.3-27.3c0.3-1.3,2.7-2.2,2.8-2.8c0.1-0.3-0.1-0.5-0.4-0.6
		c-3.1-0.7-4.7-1.1-7.7-1.9c-0.3-0.1-0.6,0-0.6,0.3c-0.2,0.6,1.5,2.4,1.2,3.7c-1.4,5.4-2.1,8.2-3.5,13.6c-0.1,0.3-0.2,0.5-0.6,0.5
		c-4.1,0.7-6.2,1-10.4,1.5c0,0-0.4,0.1-0.6,0s-0.2-0.2-0.1-0.4c2.2-7.2,3.3-10.8,5.5-18c0.4-1.3,2.8-2,3-2.5
		c0.1-0.3-0.1-0.5-0.4-0.6c-3.1-0.9-4.6-1.4-7.6-2.4c-0.3-0.1-0.6,0-0.7,0.3c-0.2,0.6,1.4,2.5,0.9,3.8c-3,8.9-5.9,17.7-8.9,26.6
		c-0.4,1.3-3.2,1.8-3.4,2.3c-0.1,0.3,0.1,0.5,0.4,0.7c3.6,1.2,5.3,1.8,8.9,2.9c0.4,0.1,0.6,0,0.7-0.3c0.2-0.6-1.8-2.6-1.4-3.9
		c0.4-1.3,0.6-1.9,1-3.2c0-0.1,0.3-0.3,0.7-0.4c3.9-0.5,5.9-0.7,9.7-1.4c0.6-0.1,0.9-0.2,1.2-0.1c0.3,0.1,0.4,0.3,0.3,0.7
		c-0.8,3-1.2,4.5-1.9,7.5c-0.3,1.3-3,2-3.2,2.6c-0.1,0.3,0.1,0.5,0.5,0.6c3.6,1,5.4,1.4,9.1,2.2c0.4,0.1,0.6,0,0.7-0.3
		C182.6,337.2,180.5,335.4,180.8,334z"/>
	<path class="st1" d="M207.1,310c0-0.8,1.6-2.5,1.6-2.8c0-0.3-0.1-0.5-0.6-0.6c-3.6-0.5-5.4-0.7-9-1.4c-0.5-0.1-0.7,0-0.8,0.3
		c-0.1,0.4,1,2.4,0.7,3.2c-2.4,8.4-8,18-12.7,26.4c-0.7,1.2-3.2,2.3-3.3,2.7c-0.1,0.3,0.1,0.5,0.5,0.6c3.7,0.8,5.5,1.2,9.2,1.8
		c0.6,0.1,0.8,0,0.9-0.3c0-0.2-1.7-2.3-1.5-3.7c0.1-0.3,0.1-0.4,0.1-0.7c0.1-0.4,0.4-0.5,0.9-0.6c4-1.1,6-1.7,9.9-3
		c0.6-0.2,1-0.2,1.1-0.2c0.3,0,0.4,0.2,0.4,0.4c0.1,0.6,1.1,6.3,1.1,7c-0.1,0.7-2.4,1.8-2.4,2.3c0,0.4,0.4,0.5,0.8,0.6
		c3.5,0.4,5.3,0.6,8.8,1c0.6,0.1,0.9,0,0.9-0.4c0-0.4-2.1-2-2.6-4.5C209.3,328.8,206.8,318.5,207.1,310z M203.5,327.1
		c-1.4,0.5-6.1,1.9-7.8,2.4c-0.1,0-0.2,0.1-0.3,0c-0.1,0-0.1-0.1-0.1-0.3c2.8-6.2,4.1-9.3,6.6-15.6c0,0,0.1-0.3,0.4-0.3
		c0.3,0,0.3,0.4,0.3,0.4c0.4,5,0.6,7.5,1.1,12.5c0,0,0.1,0.4,0,0.5C203.9,326.9,203.7,326.9,203.5,327.1z"/>
	<path class="st1" d="M237.3,308.4c-3.2,0-4.8,0-8.1-0.1c-0.3,0-0.5,0.1-0.5,0.5c0,0.4,1.6,2.2,1.6,3.3c0,0.1-0.1,0.1-0.1,0.2
		c-0.7,2.8-6.2,21.4-6.2,21.4s-0.1,0.3-0.3,0.3c-0.2,0-0.3-0.3-0.3-0.3s-3.7-19.1-4.2-21.9c0-0.1,0-0.1,0-0.2
		c0.1-1.1,1.9-2.8,1.9-3.1c0-0.3-0.2-0.5-0.5-0.5c-3.2-0.2-4.8-0.4-8-0.7c-0.3,0-0.5,0.1-0.6,0.4c-0.1,0.6,1.7,1.7,2,3.7
		c1.5,9.5,3.3,19,5.5,28.4c0,0.1,0,0.3,0,0.4c-0.1,1.2-1.5,2.2-1.5,2.8c0,0.3,0.2,0.5,0.6,0.5c3.7,0.2,5.6,0.3,9.3,0.4
		c0.4,0,0.6-0.1,0.6-0.5c0-0.6-1.3-1.7-1.3-2.9c0-0.1,0-0.3,0.1-0.4c3-9.1,5.8-18.4,8.1-27.8c0.5-1.9,2.3-2.9,2.3-3.5
		C237.8,308.5,237.6,308.4,237.3,308.4z"/>
	<path class="st1" d="M259.9,332c0-0.4-0.3-0.6-0.8-0.6c-0.5,0.1-4,2.4-4,2.4c-0.4,0.3-0.5,0.6-0.4,1.4c0.1,1.2,0.2,1.9,0.3,3.1
		c0.1,0.6-0.5,1-1,1.1c-2.6,0.2-3.8,0.3-6.4,0.4c-0.5,0-0.8-0.2-0.9-0.7c-0.1-2.8-0.2-4.2-0.3-6.9c2.9-1.7,4.3-2.6,7-4.3
		c0.7-0.5,1.1-0.8,1-1.3c-0.1-1.5-0.2-2.3-0.3-3.8c0-0.3-0.2-0.6-0.5-0.6c-0.3,0-0.6,0.2-1,0.6c-2.5,1.7-3.8,2.5-6.4,4.1
		c-0.3-5.7-0.4-8.5-0.7-14.2c0-0.5,0.2-0.8,0.6-0.8c2.3-0.1,3.5-0.2,5.8-0.4c0.4,0,0.9,0.3,0.9,0.9c0.2,1.9,0.2,2.8,0.4,4.7
		c0,0.4,0.3,0.6,0.7,0.6c0.5,0,3.6-2.6,3.6-2.6c0.3-0.3,0.4-0.6,0.4-1.4c-0.2-2.1-0.3-3.2-0.6-5.3c-0.1-0.7-0.6-1.1-1.6-1
		c-6.7,0.7-10.1,0.9-16.9,1c-0.3,0-0.5,0.2-0.5,0.5c0,0.6,2.1,1.9,2.2,3.3c0.3,9.3,0.5,18.7,0.8,28c0,1.4-2.3,2.7-2.3,3.4
		c0,0.3,0.2,0.5,0.6,0.5c7.9-0.2,11.9-0.4,19.8-1.2c1.2-0.1,1.6-0.6,1.5-1.5C260.5,337.5,260.3,335.7,259.9,332z"/>
	<path class="st1" d="M284.8,334.9c-2-9.1-3.9-18.3-5.9-27.4c-0.3-1.3,1.5-3.1,1.4-3.7c-0.1-0.3-0.3-0.4-0.6-0.3
		c-3.1,0.7-4.7,1-7.8,1.6c-0.3,0.1-0.5,0.2-0.4,0.6c0.1,0.6,2.4,1.5,2.7,2.9c1.7,9.2,3.5,18.4,5.2,27.6c0.3,1.3-1.9,3.1-1.8,3.7
		c0.1,0.3,0.3,0.4,0.7,0.4c3.7-0.7,5.5-1,9.1-1.8c0.4-0.1,0.6-0.3,0.5-0.6C287.7,337,285.1,336.2,284.8,334.9z"/>
	<path class="st1" d="M307.2,320c-0.1-0.4-0.4-0.6-0.9-0.4c-0.5,0.2-3.3,3.4-3.3,3.4c-0.3,0.3-0.4,0.7-0.1,1.5
		c0.5,1.7,0.8,2.6,1.3,4.3c0.2,0.6-0.2,1.1-0.7,1.3c-2.5,0.8-3.8,1.1-6.3,1.8c-0.8,0.2-1.2,0-1.4-0.7c-2.7-10-4-15.1-6.7-25.1
		c-0.2-0.7,0-1.1,0.7-1.3c2.2-0.6,3.4-0.9,5.6-1.6c0.4-0.1,1,0.1,1.2,0.7c0.7,2.3,1.1,3.5,1.8,5.8c0.1,0.4,0.4,0.6,0.8,0.4
		c0.5-0.2,3.1-3.4,3.1-3.4c0.3-0.3,0.3-0.7,0.1-1.5c-0.6-1.8-0.9-2.6-1.5-4.4c-0.5-1.4-2.4-2.6-4.8-1.9c-3.7,1.1-5.5,1.7-9.2,2.6
		c-2.2,0.6-3.4,2-3,3.9c2.3,9.6,4.6,19.2,6.9,28.7c0.5,1.9,2.4,2.5,5,1.9c4.3-1.1,6.5-1.7,10.8-3.1c2.8-0.9,3.9-3.1,3.4-4.5
		C308.9,325.2,308.3,323.5,307.2,320z"/>
	<path class="st1" d="M330.4,312.8c-0.2-0.4-0.5-0.5-0.9-0.3c-0.5,0.2-3.1,3.6-3.1,3.6c-0.3,0.4-0.3,0.7,0,1.5
		c0.5,1.1,0.7,1.7,1.2,2.9c0.2,0.6-0.1,1.1-0.6,1.3c-2.4,1-3.6,1.5-6,2.4c-0.5,0.2-0.9,0-1.1-0.4c-1-2.6-1.5-3.9-2.5-6.5
		c2.2-2.5,3.3-3.8,5.4-6.3c0.5-0.7,0.8-1,0.6-1.6c-0.6-1.4-0.9-2.1-1.5-3.5c-0.1-0.3-0.4-0.5-0.7-0.4c-0.2,0.1-0.5,0.4-0.8,0.9
		c-1.9,2.4-2.9,3.5-4.9,5.9c-2-5.3-3-8-5.1-13.3c-0.2-0.5,0-0.8,0.4-1c2.2-0.8,3.3-1.3,5.5-2.2c0.4-0.2,0.9,0,1.2,0.5
		c0.7,1.7,1.1,2.6,1.8,4.3c0.2,0.4,0.4,0.5,0.9,0.3c0.5-0.2,2.7-3.7,2.7-3.7c0.2-0.4,0.2-0.7-0.1-1.5c-0.9-1.9-1.3-2.9-2.2-4.9
		c-0.3-0.6-0.9-0.8-1.9-0.4c-6.3,2.8-9.5,4.1-16,6.3c-0.3,0.1-0.5,0.3-0.4,0.6c0.2,0.6,2.6,1.1,3.1,2.4c3.1,8.8,6.3,17.6,9.4,26.4
		c0.5,1.3-1.4,3.3-1.2,3.9c0.1,0.3,0.4,0.4,0.7,0.2c7.6-2.6,11.4-4.1,18.8-7.4c1.1-0.5,1.4-1.1,1-1.9
		C332.7,317.9,331.9,316.2,330.4,312.8z"/>
	<path class="st1" d="M437.2,244.1c-0.3-1-2.6-1-5.4-3.1c-1.4-0.9-8.9-10.2-14.6-17.9c1.8-2.1,2.6-3.2,4.4-5.3
		c1.1-1.5,1.7-2.8,1.1-4.6c-2.5-7.6-3.7-11.4-6.1-19c-1.5-4.5-4.6-5.6-9.4-4.1c-9.7,3-14.6,4.4-24.5,7c-0.6,0.1-0.8,0.5-0.7,1
		c0.3,1,4.3,2.3,4.9,4.6c5,18.7,7.5,28.1,12.6,46.8c0.6,2.3-2.6,5.5-2.3,6.5c0.1,0.6,0.6,0.7,1.2,0.5c5.8-1.5,8.7-2.3,14.4-4
		c0.6-0.2,0.9-0.5,0.7-1.1c-0.3-1-4.7-2.1-5.3-4.4c-1.1-3.9-1.7-5.9-2.8-9.8c-0.2-0.9-0.2-1.6,0.4-2.3c1.8-1.9,2.7-2.9,4.5-4.9
		c4.2,5.3,8.9,11.1,11.1,14.3c0.5,0.8,0.8,1.2,0.9,1.4c0.4,1.3-1.4,2.4-1.1,3.4c0.2,0.5,0.6,0.7,1.2,0.5c5.6-1.7,8.4-2.6,14-4.4
		C437.1,244.9,437.4,244.6,437.2,244.1z M411.9,217c-3.1,3.5-4.7,5.2-7.9,8.7c0,0-0.6,0.7-1,0.8c-0.3,0.1-0.7-0.1-0.8-0.7
		c-2.7-9.6-4.1-14.3-6.8-23.9c-0.3-0.9,0.2-1.8,0.9-2c3.8-1.1,5.7-1.7,9.6-2.8c1.8-0.6,2.7-0.1,3.2,1.7c1.7,5.6,2.6,8.4,4.3,13.9
		C413.8,214.1,413.4,215.2,411.9,217z"/>
	<path class="st1" d="M388,252.4c-4.7-18.8-7-28.2-11.7-47c-0.6-2.3,2.3-5.4,2.1-6.4c-0.1-0.6-0.5-0.7-1.1-0.6
		c-5.3,1.3-7.9,2-13.2,3.2c-0.6,0.1-0.8,0.4-0.7,1c0.2,1,4.2,2.4,4.8,4.7c4.4,18.9,6.7,28.3,11.1,47.2c0.5,2.3-2.7,5.4-2.5,6.4
		c0.1,0.6,0.5,0.7,1.2,0.6c5.8-1.3,8.7-2,14.5-3.5c0.6-0.2,0.9-0.5,0.8-1C392.9,255.9,388.6,254.7,388,252.4z"/>
	<path class="st1" d="M359,258.9c-3.7-18.2-5.5-27.3-9.2-45.4c-0.1-0.7,0.3-1.5,1.1-1.6c3.4-0.7,5.4-1,7.1,0.3
		c2.5,1.9,3.2,2.5,3.8,2.3c0.6-0.1,0.8-0.5,0.6-1.1c-0.9-4-1.3-6-2.2-10c-0.1-0.6-0.4-0.8-1-0.7c-1,0.2-4.3,1.8-6.7,2.3
		c-6.6,1.4-9.9,2-16.5,3.2c-2.4,0.4-6,0.2-7.1,0.4c-0.6,0.1-0.8,0.5-0.7,1c0.7,4,1,6.1,1.7,10.1c0.1,0.6,0.4,0.8,1,0.7
		c0.6-0.1,1-0.9,2.6-3.6c1.1-1.8,3.1-2.3,6.4-2.9c0.8-0.2,1.5,0.4,1.7,1.1c3.4,18.2,5.2,27.3,8.6,45.6c0.4,2.3-3,5.3-2.8,6.3
		c0.1,0.6,0.5,0.7,1.1,0.6c5.9-1.1,8.8-1.7,14.6-2.9c0.6-0.1,0.9-0.4,0.8-1C363.8,262.7,359.5,261.2,359,258.9z"/>
	<path class="st1" d="M142,272.5c3.7-21,5.6-31.5,9.3-52.6c0.4-2.3,4.3-4,4.5-5c0.1-0.6-0.2-0.9-0.8-1c-5.2-0.9-7.7-1.4-12.9-2.4
		c-0.6-0.1-0.9,0.1-1,0.6c-0.2,1,2.9,4,2.4,6.3c-2.6,13.9-4,20.9-6.6,34.8c0,0-0.1,0.5-0.4,0.4c-0.3,0-0.4-0.4-0.5-0.8
		c-4.6-16.9-6.7-25.4-10.4-42.3c-0.4-1.8-0.9-2.7-2.1-3c-3.7-0.8-5.5-1.3-9.2-2.2c-0.6-0.1-0.9,0-1.1,0.6c-0.3,1,2.7,4.1,2.1,6.4
		c-4.5,18.9-6.8,28.3-11.3,47.2c-0.5,2.3-4.9,3.6-5.1,4.6c-0.1,0.6,0.2,0.9,0.8,1c5.6,1.4,8.4,2,14.1,3.3c0.6,0.1,1,0,1.2-0.6
		c0.2-1-3.1-4.1-2.6-6.4c2.8-12.7,4.3-19,7.1-31.6c0.1-0.6,0.3-0.9,0.6-0.8c0.4,0.1,0.4,0.4,0.7,1.2c4,15.8,6.2,23.7,11,39.4
		c0.7,1.8,1.1,2.7,2.5,3c2.2,0.4,3.4,0.6,5.6,1C141.4,274,141.9,273.3,142,272.5z"/>
	<path class="st1" d="M63.3,213.4c-1.3-1.8-1.4-3-0.9-4.5c1.2-3.8,1.9-5.8,3.1-9.6c0.4-1.2,1-1.6,2.2-1.2c3.1,1,4.7,1.5,7.8,2.4
		c0.9,0.3,1.3,1.1,1,2.1c-0.6,2.1-0.9,3.1-1.6,5.1c-0.4,1.3-0.3,1.9,0.1,2.5c0,0,4.4,5.4,5.2,5.6c0.7,0.2,1.2-0.1,1.4-0.8
		c1.4-5,2.2-7.6,3.6-12.6c0.7-2.5-0.8-6.1-5-7.3c-5.6-1.7-8.4-2.6-14-4.4c-3.7-1.2-6.7-0.3-7.8,2.9c-2.2,6.4-3.2,9.6-5.4,16
		c-1,2.9,0.1,4.7,1.9,7.1c4.2,5.5,6.4,8.2,10.8,13.6c1.2,1.5,1.5,2.8,1,4.2c-1.3,4.4-2,6.6-3.3,11.1c-0.4,1.2-1,1.6-2.3,1.2
		c-3.4-1-5-1.5-8.4-2.6c-0.8-0.2-1.4-1.1-1.1-2.2c1-3,1.4-4.5,2.4-7.4c0.4-1.3,0.3-1.9-0.1-2.5c0,0-4.4-5.6-5.3-5.8
		c-0.8-0.3-1.2,0-1.5,0.7c-2,5.9-3,8.8-5,14.7c-0.8,2.5,0.8,6.2,5.3,7.7c6.2,2,9.2,3,15.4,4.8c4.1,1.2,7.3,0.2,8.3-3
		c2-6.9,3-10.3,4.9-17.2c0.8-2.9,0.1-4.5-2-7C69.8,221.6,67.6,218.9,63.3,213.4z"/>
	<path class="st1" d="M90.7,256c4.8-18.8,7.3-28.2,12.1-46.9c0.6-2.3,4.6-3.6,4.9-4.6c0.1-0.6-0.1-0.9-0.7-1
		c-5.3-1.3-7.9-2-13.1-3.5c-0.6-0.2-0.9,0-1.1,0.5c-0.3,1,2.6,4.2,1.9,6.4c-5.1,18.7-7.6,28.1-12.7,46.8c-0.6,2.3-5,3.4-5.3,4.5
		c-0.2,0.5,0.1,0.9,0.7,1.1c5.8,1.6,8.7,2.4,14.4,3.8c0.6,0.2,1,0,1.2-0.5C93.3,261.4,90.1,258.3,90.7,256z"/>
	<path class="st1" d="M157.2,236.6c-1.4-0.3-2.1,0.2-2.4,1.6c-0.5,2.7-0.8,4.1-1.3,6.8c-0.3,1.4,0.3,2.1,1.8,2.4
		c3.1,0.6,5.6,1,8.7,1.5c1.5,0.3,2.3-0.2,2.5-1.6c0.5-2.7,0.7-4.1,1.2-6.8c0.3-1.4-0.3-2.1-1.8-2.4
		C162.8,237.6,160.3,237.2,157.2,236.6z"/>
	<path class="st1" d="M327.2,271.2c-6.4,1-9.5,1.4-15.9,2.2c-4.7,0.6-7.7-2.1-8-4.7c-0.7-6.2-1.1-9.3-1.8-15.5
		c-0.1-0.7,0.2-1.2,1-1.3c0.9-0.1,7.2,3.1,7.2,3.1c0.7,0.3,1,0.9,1.2,2.2c0.4,3.1,0.6,4.7,1,7.8c0.1,1.1,1.1,1.6,1.9,1.5
		c3.5-0.5,5.2-0.7,8.6-1.2c1.3-0.2,1.8-0.8,1.6-2c-0.7-4.6-1-6.9-1.7-11.4c-0.2-1.5-1-2.6-2.7-3.4c-6.3-3-9.4-4.6-15.5-7.7
		c-2.7-1.4-4.4-2.6-4.7-5.6c-0.4-3.6-0.7-6.2-1-8.9c-0.3,1-0.4,1.6-0.4,1.6c0,0-1.1,4.1-2.6,9.8c-0.4-0.5-1-0.7-1.9-0.6
		c-3.1,0.1-4.6,0.2-7.7,0.3c-1.5,0-2,0.6-2,2.1c0.1,2.8,0.2,3.6,0.2,6.4c0,1.5,0.8,2,2.2,2c2.7-0.1,4.2-0.1,6.5-0.2
		c-2.6,10-5.4,20.4-6,22.5c-3.9,13.9-2.1,14.8-13.9,21.5c-4,2.3-11.2,3.7-15.7,4.5c-8.8,1.4-17.8,1.9-26.7,1.7
		c-10.1-0.3-20.2-1.1-30-3.9c-1.7-0.5-5.6-1.2-7.1-2c-6.4-3.5-9.1-9.2-10.9-15.5c5.6,0.2,8.5,0.2,14.3,0.3c0.6,0,1-0.2,1-0.8
		c0-1.1-3.8-3.4-3.8-5.7c0.1-7.9,0.2-15.8,0.3-23.8c0.1-7.9,0.2-13.5,0.3-21.3c0-1.4-0.1-4,1.1-5.2c1-1,2.7-1.7,3.6-2.5
		c0.7-0.6,0.2-1.1,0-1.3c-0.5-0.3-2.5-0.3-3.4-0.3c-1.3,0-2.6-0.1-3.9-0.1c-2.6-0.1-5.2-0.1-7.7,0c-0.4,0-0.7,0-1,0.2
		c-0.3,0.1-0.6,0.5-0.6,0.8c0,0.4,0.4,0.7,0.8,1c1.5,1,3.1,2.1,3,4.1c-0.5,19.3-0.8,28.9-1.3,48.2c0,1.6-1.9,3.1-3.1,4.2
		c-0.9-3.4-1.5-7-2.5-10.4c-2.6-9.8-19.4-70.6-22.7-75c-1.4-1.9-4.1-1.5-4.8-4.1c-0.3-0.9-0.3-2.6,0.1-3.5c0.2-0.4,0.5-0.7,0.8-1
		c-1.7-1-3.3-2-4.9-3c-11.6-7.7-17.1-15.8-16-22.9c1-6.2,7.9-10.3,12.5-8.7c3,1.1,7.5,1.6,10.9,0.3c-0.9,2.4-2.5,3.6-4.3,4.4
		c-1.2,0.5-2.4,0.9-3.6,1.5c-2.5,1.2-6.3,3.3-6.3,6.1c0,5.9,6,8.3,7.4,8.7c0.2,0,0.3-0.1,0.3-0.3c-0.4-2.4-0.7-4.7,0.2-7.3
		c1.5,3.6,3.5,6.4,7.7,6.2c0.2,0,0.4-0.2,0.4-0.5c0-0.9,0-1.7,0-2.5c-0.2-3.6,0.6-6.8,3.1-9.5c0.1-0.1,0.2-0.3,0.3-0.5
		c2.1-3.3,3.4-7.8,0.2-11.2c-2.1-2.3-7.9-4.9-9.9-7.3c-1.6-2-5.5-5.7-3.7-13.6c1.2-4.9,6-9.1,11.1-8.9c1.1,0,2.3,0.2,3.4,0.6
		c1.1,0.5,2,1.3,2.7,2.2c0.9,1.5,1.2,3.4,2.3,4.7c0.6,0.7,3,2.1,0.6,1.9c-1.6-0.2-2.9-1.3-4.5-1.8c-0.6-0.2-1.3-0.3-1.9-0.2
		c-1.4,0.1-2.3,1-3.1,2.2c-0.4,0.7-0.9,2.2-0.3,3.9c0.7,2,2.5,3.3,3.4,3.8c1.4,0.8,3,0.9,4.5,0.5c2.4-0.5,3.8-2.5,5-4.4
		c0.9-1.4,1.9-2.8,2.3-4.4c0.2-0.8,0.3-1.5,0.5-2.3c0.3-0.9,0.9-1.8,1.5-2.6c0.6-0.7,1.1-1.6,1.5-2.5c0.8-1.6,1.4-3.3,1.2-5.1
		c-0.7-5.5-6.2-13-6.9-19.9c-0.6-6.3,2.6-11.7,9.8-12.7c0.3,0,0.5,0.3,0.4,0.6c-4,8.3-0.8,12.1,5.4,14.1c5,1.6,12.5,0.3,17.4-1.8
		c8.5-3.6,10.5-7,11.9-12.9c2.1-9.2-7.2-13.9-14.8-12.9c-2.5,0.3-5,0.9-7.5,1.2c-4.2,0.4-8.3-0.3-11.7-3.1c-2.6-2.2-3.9-5.1-3-8.5
		c0.4-1.3,1.3-2.7,2.4-3.5c1.7-1.4,3.6-2.4,5.3-3.6c-0.2,0.3-0.5,0.7-0.8,1.2c-3.6,4.9-1.2,10.5,4.9,11.5c2.4,0.4,6.9-1,8.9-2.1
		c4.3-2.4,7.2-5.4,10.3-6.1c6.2-1.4,9.1,1.8,13.9,5.7c2.2,1.8,3.7,4.2,6.4,5.3c1.9,0.8,5,1.1,7,1.5c9,2.1,6.2,16.6,6.1,18.4
		c-0.1,3.9,4.4,7.6,9.8,8c2.1,0.1,4.6-0.2,5.8-2c0.9-1.3,0.8-3.1,1.6-4.5c1-1.7,3.2-2.4,4.8-3.6c2.5-1.9,3.6-5.7,4.2-8.6
		c4.3,2.5,4.6,8.5,3.7,11.4c-4.2,13.9-0.2,17.6,0.9,18.8c1.6,1.7,6.7,2.3,7.8-0.3c0.3-0.6,0.2-1.4-0.2-2c-0.4-0.5-0.9-0.8-1.4-1.3
		c-0.9-1.1-0.9-2.6-0.7-4.1c0.3,1,1.2,1.8,2.2,2.3c1,0.5,2.1,0.7,3.1,1.1c1,0.4,3.4,1.2,3.9,2.2c2.7,5.4-2.2,6.2-4.4,8.7
		c-3.7,4.2-1.3,11.4,5.3,13c2.3,0.5,6.6-1.6,3.8-5.4c-1.5-2.2-0.7-3.5,0.6-5.5c0,1.3,0.9,2.6,2,3.3c1.8,1.2,4.8,2.1,6.8,2.8
		c7,2.2,4.7,10.6-1.3,15.2c-2.3,1.8-4.2,4.3-4.5,7.4c-0.3,3.5-0.3,7.1-0.1,10.7c0,1.1,0.1,2.2,0.6,3.2c0.5,1,1.3,1.7,2.1,2.5
		c2.2,2.4,3.3,6,4.2,9.1c0.2,0.9,1.3,1.2,2,0.6c2-1.9,0.8-5,6.3-8.3c4.4-2.7,7.8-5.4,9.3-10.2c0.4-1.5,0.2-2.8-0.8-3.4
		c-0.8-0.5-2.7,0.9-3.3,1.4c-1,0.9-1.7,2-2.8,2.8c-1.2,0.8-2.7,1-4,0.7c-1.2-0.2-2.4-0.8-3.4-1.6c0,0,0-0.1,0-0.1
		c1,0.3,2.3-0.1,3.1-0.8c4-3.5,2.8-6.8,6.1-9.9c2.4-2.2,6.5-2.7,9.9-1.5s4.7,5.3,4.8,9.8c0.1,4.6-2.7,12.3-5.5,16
		c-4,5.4-7.7,11.7-15.6,18.4c0.7,1.4,1.9,3.9,2.3,5c0.8,2,0.1,4.5-1.5,5.9c-1.3,1.1-2.6,1.4-3.1,3.1c-0.4,1.1-3.4,12.6-6,22.6
		c0.4-0.1,0.9-0.2,1.4-0.3c5.8-0.7,8.7-1.1,14.4-2c4.2-0.6,7.2,1.9,7.6,4.5c0.8,5.2,1.3,7.8,2.1,12.9c0.1,0.7-0.2,1.2-0.9,1.3
		c-0.8,0.1-7.1-2.9-7.1-2.9c-0.6-0.3-1-0.8-1.2-2.2c-0.3-2.1-0.5-3.2-0.8-5.3c-0.2-1-0.9-1.6-1.8-1.5c-3.2,0.5-4.8,0.7-8,1.1
		c-1.2,0.2-1.7,0.8-1.5,2c0.5,4,0.8,6,1.3,10c0.2,1.5,0.8,2.6,2.7,3.7c6.2,3.1,9.3,4.7,15.6,7.6c2.9,1.4,4.3,2.5,4.8,5.5
		c1.1,7.1,1.7,10.6,2.9,17.7C333.9,268.2,331.5,270.5,327.2,271.2z M280.2,255.2c-0.9,0.1-6.6,3.9-6.6,3.9c-0.6,0.4-0.8,1-0.8,2.4
		c0.1,2.1,0.2,3.2,0.3,5.4c0.1,1.1-0.8,1.8-1.6,1.8c-4.1,0.2-6.2,0.3-10.3,0.5c-0.8,0-1.4-0.4-1.4-1.3c-0.2-4.8-0.2-7.2-0.4-12
		c4.7-2.8,7-4.3,11.6-7.2c1.2-0.8,1.8-1.2,1.7-2.2c-0.1-2.6-0.2-3.9-0.4-6.5c0-0.6-0.3-1-0.8-1c-0.4,0-0.9,0.4-1.8,0.9
		c-4.2,2.7-6.4,4.1-10.7,6.7c-0.1-1.9-0.9-24.4-0.8-24.4c3.7-0.1,7.3-0.2,11-0.3c0.5,0,1.1,0,1.4,0.5c0.1,0.3,0.1,0.6,0.1,0.9
		c-0.1,2.2,0.2,4.5,0.3,6.6c0,0.7,0.4,1.1,1.2,1.1c0.8,0,6.2-4.3,6.2-4.3c1.1-0.8,0.8-2.7,0.7-3.9c-0.2-1.6-0.6-3.1-0.8-4.7
		c-0.1-0.5-0.2-0.9-0.5-1.3c-0.4-0.4-1-0.5-1.5-0.5c-4.6-0.4-9.1-0.4-13.7-0.3c-4.9,0.1-9.8,0.2-14.7,0.1c-0.9,0-2,0.1-2.4,0.8
		c-0.5,0.8,0,1.8,0.6,2.4c0.6,0.6,1.5,1,2.1,1.7c1.6,1.8,1.8,4.7,1.8,7c0.1,4.5,0.2,8.9,0.3,13.4c0.2,9,0.4,18,0.6,27
		c0,0.3,0,0.7,0,1c0,2.4-3.8,4.7-3.8,5.8c0,0.6,0.4,0.8,1,0.8c12.7-0.2,19.1-0.5,31.8-1.3c1.9-0.1,2.7-1,2.6-2.5
		c-0.4-6.4-0.7-9.6-1.1-16C281.3,255.5,281,255.1,280.2,255.2z M238.1,254.9c-0.9,0-6.7,4-6.7,4c-0.6,0.4-0.9,1-0.9,2.4
		c0,3.1,0,4.7,0.1,7.8c0,1.1-0.9,1.7-1.7,1.7c-4.2,0-6.3,0-10.5,0c-1.3,0-1.9-0.6-1.9-1.8c0.3-18,0.4-26.9,0.6-44.9
		c0-1.2,0.5-1.8,1.8-1.8c3.9,0,5.8,0.1,9.7,0c0.7,0,1.6,0.6,1.6,1.7c0,4.2,0,6.3,0.1,10.5c0,0.7,0.3,1.1,1.1,1.1c0.9,0,6.5-4,6.5-4
		c0.6-0.4,0.8-1,0.8-2.4c-0.1-3.2-0.1-4.8-0.2-8c0-1.9-1.4-3.7-3-4.6c-0.9-0.5-2-0.8-3-0.9c-1.7-0.2-3.4,0.1-5.1,0.1
		c-3.4,0.1-6.7,0.1-10.1,0.1c-2.2,0-6.5-1-7.9,1.2c-0.5,0.8-0.6,1.9-0.6,2.9c-0.1,4.6-0.3,9.1-0.3,13.7c-0.1,3.7-0.2,7.4-0.3,11.1
		c-0.2,7.7-0.4,15.5-0.6,23.2c0,1.2-0.1,2.4-0.1,3.6c-0.1,3.3,2.7,5.3,6.9,5.4c7.1,0.1,10.7,0.1,17.9,0.1c4.7,0,7.4-3.1,7.3-5.7
		c-0.1-6.2-0.2-9.3-0.3-15.6C239.2,255.3,238.9,254.9,238.1,254.9z M191.4,154.4c-3.6-0.9-8.2,1.7-4.4,8.5
		c10.4,18.7,26.9,25.8,44.5,25.8c21.5,0,37.6-12.8,42.8-23.8c1.4-3,3.2-5.8,3.3-9.1c0.1-3.4-3.2-4.7-5.7-4c-2.7,0.7-4.4,2.5-6.1,4.7
		c-4.6,6-11.3,9.5-18.4,12c-8.1,2.9-16.3,3.5-24.9,1.8c-10-2-15.9-6-24.5-12C195.9,156.6,194.4,155.1,191.4,154.4z M195.9,161.9
		c0.1-2.4-1.9-4.8-4.1-4.8c-1.7,0-3.1,1.4-3.1,3.3c0,2.3,2,4.7,4.1,4.7C194.5,165.2,195.9,163.8,195.9,161.9z M268.7,158.8
		c-0.1,2,1.1,3.5,2.8,3.5c1.9,0,3.5-1.8,3.6-4c0-1.9-1.2-3.5-2.9-3.5C270.4,154.7,268.8,156.6,268.7,158.8z M261.3,168.5
		c0.6,2.4,2.9,3.4,5,2.1c1.9-1.1,2.8-2.9,2.9-4.6c0.2-3.9-2.1-5.8-4.7-4.5C262.1,162.7,260.6,165.9,261.3,168.5z M249.5,177.5
		c0.5,2.4,2.1,3.8,4.6,3.6c3.7-0.2,7.2-4.7,6.7-8.4c-0.4-2.5-1.8-3.9-4.2-3.9C252.7,168.8,248.8,173.5,249.5,177.5z M235.5,180.5
		c0,3.1,2.3,5.3,5.4,5.3c3.9,0,6.8-3,6.8-6.9c0-3.1-2.4-5.5-5.5-5.5C238.6,173.4,235.5,176.7,235.5,180.5z M219.9,179.9
		c-0.1,3.5,3.1,6.5,6.9,6.5c3.6,0.1,6.2-2.4,6.3-5.8c0.1-3.6-2.9-6.5-6.7-6.6C222.7,174,220,176.5,219.9,179.9z M207.1,174.7
		c-0.2,3.5,2.4,6.8,5.8,7.5c3,0.6,5.2-1.3,5.3-4.4c0.1-3.4-2.6-6.8-5.8-7.5C209.7,169.7,207.3,171.6,207.1,174.7z M196,167.4
		c-0.2,3.1,2.4,6.5,5.4,7c2.7,0.5,4.6-1.1,4.7-3.9c0.1-2.9-2.1-6-4.8-6.9C198.6,162.9,196.2,164.6,196,167.4z M190.1,118.5
		c-4.3-0.4-7.7,1.9-8.9,6.1c-0.7,2.5-0.5,5,0.3,7.5c1.6,4.9,4.9,8.4,9,11.2c5.2,3.6,10.8,6.2,17.3,5.8c0.9,0,1.8-0.2,2.7-0.4
		c0.4-0.1,0.9-0.3,1.3-0.4c0.4-0.1,0.5-0.4,0-0.4c-2.1-0.1-4.2-0.2-6.3-0.6c-0.8-0.2-2-0.3-3-0.9c-0.1,0-0.1-0.1-0.2-0.2
		c0-0.2,0.3-0.3,0.5-0.4c0.8,0,1.6,0,2.4-0.1c0.9-0.1,1.8-0.1,2.7-0.2c1.8-0.2,3.5-0.4,5.2-1c3.4-1.1,6.6-3.1,8.8-5.9
		c0.3-0.3,0.5-0.7,0.5-1.1c0-0.6-0.9-0.6-1.2-1.1c-0.3-0.6-0.1-1.4,0.3-1.9c0.4-0.5,0.8-1,1.2-1.5c3.2-4.2-1.4-9.6-5.1-11.5
		c0.7,1.4,1.6,2.7,2.2,4.2c0.9,2.3-0.1,4.4-2.3,5.5c-4,2-8.6,1.2-11.7-2c-0.8-0.9-1.5-1.8-2.3-2.7
		C200.1,122.2,195.9,119,190.1,118.5z M259.6,126.4c-0.8,0.9-1.5,1.9-2.3,2.7c-3.1,3.2-7.7,4-11.7,2c-2.2-1.1-3.1-3.1-2.3-5.5
		c0.6-1.5,1.4-2.8,2.2-4.2c-3.8,1.9-8.3,7.3-5.1,11.5c0.4,0.5,0.9,0.9,1.2,1.5c0.3,0.5,0.6,1.3,0.3,1.9c-0.3,0.5-1.1,0.5-1.2,1.1
		c0,0.4,0.2,0.8,0.5,1.1c2.2,2.8,5.4,4.8,8.8,5.9c1.8,0.6,3.6,0.9,5.4,1c0.9,0.1,1.9,0.2,2.8,0.2c0.5,0,0.9,0.1,1.4,0.1
		c0.2,0,0.9-0.1,0.8,0.3c-0.1,0.2-0.5,0.3-0.7,0.4c-0.3,0.1-0.6,0.3-1,0.4c-0.6,0.2-1.3,0.3-2,0.5c-1.2,0.2-2.5,0.3-3.7,0.4
		c-0.2,0-2.3-0.1-2.2,0.2c0.2,0.5,1.5,0.6,2,0.7c0.8,0.2,1.7,0.3,2.5,0.3c6.5,0.3,12.1-2.2,17.3-5.8c4.1-2.9,7.4-6.3,9-11.2
		c0.8-2.5,1-5,0.3-7.5c-1.2-4.1-4.6-6.4-8.9-6.1C267.3,119,263.1,122.2,259.6,126.4z M250.9,103.7c1.4-0.5,3-1,4.5-1.2
		c2.8-0.3,5.4,0.4,6.8,3.7c0.5,0,0.7-0.7,0.6-1.2c-0.3-1.7-1-3.3-2.5-4.3c-1.5-0.9-3.3-1.4-5-1.1c-2.9,0.6-5.8,4.1-5.3,4.3
		C250.2,104,250.7,103.8,250.9,103.7z M211.8,92.3c1.5,0.1,3.3,0,4.8-0.1c5.1-0.6,9.2-3.9,14.4-3.7c4.1,0.2,9.4,2.9,13.1,4.5
		c1.8,0.8,4,1.2,4,1.1c0-0.3-4.1-1.6-6.3-3.1c-2.4-1.7-4.8-4.2-7.7-4.8c-5.3-1.1-9.8,0.2-14.6,2.4c-2.2,1-4.6,2.3-8.8,2.8
		c-4.2,0.5-5,2.1-4.8,2C206.8,93,209,92.1,211.8,92.3z M162.5,176.6c1,0.6,2.1,1.2,3.3,1.7l1.1,0.5c6.3,2.6,11.6,3.9,11.7,3.7
		c0.1-0.2-3.8-2-4.5-2.3l-1-0.5c-2.7-1.2-4.6-2.4-6-4.7l-0.1-0.1c-0.6-1.1-1.8-3.1-4.1-2.3c0,0,0,0,0,0
		C161.1,173.3,161,175.7,162.5,176.6z M175.4,152.9c0.1,0.1,0.2,0,0.1-0.1c-0.7-1.6-1-3.3-1.5-5c-0.6-2.1-2.1-3.8-2.7-6
		c-0.8-3.1-0.2-6.3,0-9.3c0-0.1-0.1-0.1-0.2,0c-1.5,4.9-3.7,9.2-2,13.7C171,150.7,174.5,152.2,175.4,152.9z M179.9,116.8
		c1.1-1.5,1.8-5,7.5-8c1.7-0.9,4.6-0.6,7-4.9c0.7-1.1,2.4-1.8,3.9-1.7c2.3,0.2,5.1,1.8,6,2.4c0.1,0,0.2-0.1,0.1-0.1
		c-1.7-2.3-4.2-4-7.1-4.9c-1.7-0.5-3.2-1.2-3.4-2.1c-0.5-2.7,4.6-3.1,6.3-3.2c0.2,0,0.2-0.2,0.1-0.3c-2.1-1.1-5.8-1.3-7-0.7
		c-6.1,3-1,7.1-9.7,15.5c-3.8,3.6-4.1,6.6-4.1,7.8C179.6,116.9,179.8,117,179.9,116.8z M231.8,141.7
		C231.8,141.7,231.8,141.7,231.8,141.7L231.8,141.7c-2.5,0-3.9,4.2-4.7,6.3c-0.3,0.8-0.7,1.7-1.2,2.4c-0.8,1.1-2.1,1.8-3.2,2.7
		c-0.3,0.2-0.5,0.5-0.3,0.8c0.1,0.2,0.4,0.1,0.7,0.1c0,0,0.1,0,0.1,0c0.8-0.2,1.5-0.5,2.3-0.8c0.7-0.3,1.5-0.6,2.3-0.6
		c2.1,0.2,1.7,3.4,2,4.8c0.2,0.9,0.5,1.8,1.3,2.3c0.2,0.1,0.5,0.2,0.7,0.2v0c0,0,0,0,0.1,0c0,0,0,0,0.1,0v0c0.2,0,0.5-0.1,0.7-0.2
		c0.9-0.4,1.1-1.4,1.3-2.3c0.3-1.5-0.1-4.6,2-4.8c0.8-0.1,1.6,0.3,2.3,0.6c0.7,0.3,1.5,0.6,2.3,0.8c0,0,0.1,0,0.1,0
		c0.2,0.1,0.5,0.1,0.7-0.1c0.2-0.2-0.1-0.6-0.3-0.8c-1.1-0.8-2.4-1.5-3.2-2.7c-0.5-0.7-0.9-1.5-1.2-2.4
		C235.7,145.9,234.4,141.7,231.8,141.7L231.8,141.7C231.9,141.7,231.8,141.7,231.8,141.7z M306.3,185.4c-1.2-0.9-2.9-0.5-3.9,0
		c-1.9,1-9.9,4.3-19.1,7.2c-11.8,3.7-26.6,5.8-47.3,6.7c-2.5,0.1-4.3,0.2-6.8,0.2c-7.4-0.1-34.5-1.7-53.7-8.1c0,0-10.3-3.4-12.9-4.7
		c-0.8-0.4-2.1-0.1-2.6,0.7c-0.4,0.8,0.1,2,0.9,2.5c3.9,2.1,9.2,5.3,14.2,7.1c0.2,0.9,0.3,1.9,0.6,2.9c0.1,0.6,0.3,1.2,0.7,1.7
		c0.6,0.7,1.5,1,2.4,0.9c0.7-0.1,1.4-0.3,2.2-0.5c0.2,0,0.3-0.1,0.5-0.1c5.9-1.1,13.1,0.9,16.6,6c0.9,1.3,1.6,2.8,2.8,3.7
		c2.2,1.7,5.8,0.9,7.1-1.6c0.4-0.7,0.6-1.6,1-2.3c0.8-1.6,2.5-2.7,4.3-3.2c4.4-1.2,9-0.5,13.5-0.5c8.1,0.1,35.9,0.3,59.6-7.7
		c3.5-1.2,17.3-7.2,19.8-9.6C306.5,186.5,306.7,185.7,306.3,185.4z"/>
</g>
</svg>
